<?xml version="1.0" encoding="iso-8859-1"?>
<!-- Generator: Adobe Illustrator 16.0.0, SVG Export Plug-In . SVG Version: 6.00 Build 0)  -->
<!DOCTYPE svg PUBLIC "-//W3C//DTD SVG 1.1//EN" "http://www.w3.org/Graphics/SVG/1.1/DTD/svg11.dtd">
<svg version="1.1" id="Capa_1" xmlns="http://www.w3.org/2000/svg" xmlns:xlink="http://www.w3.org/1999/xlink" x="0px" y="0px"
	 width="424.56px" height="424.56px" fill="#ffffff" viewBox="0 0 424.56 424.56" style="enable-background:new 0 0 424.56 424.56;"
	 xml:space="preserve">
<g>
	<path d="M242.606,303.258c0,16.759-13.562,30.321-30.326,30.321c-16.762,0-30.324-13.562-30.324-30.321
		c0-16.765,13.562-30.327,30.324-30.327C229.044,272.931,242.606,286.493,242.606,303.258z M121.302,181.955
		c-16.762,0-30.324,13.562-30.324,30.324s13.562,30.324,30.324,30.324c16.762,0,30.327-13.562,30.327-30.324
		S138.066,181.955,121.302,181.955z M212.28,181.955c-16.762,0-30.324,13.562-30.324,30.324s13.562,30.324,30.324,30.324
		c16.764,0,30.326-13.562,30.326-30.324S229.044,181.955,212.28,181.955z M303.26,181.955c-16.769,0-30.331,13.562-30.331,30.324
		s13.562,30.324,30.331,30.324c16.76,0,30.322-13.562,30.322-30.324S320.02,181.955,303.26,181.955z M303.26,90.978
		c-16.769,0-30.331,13.562-30.331,30.324s13.562,30.327,30.331,30.327c16.76,0,30.322-13.565,30.322-30.327
		S320.02,90.978,303.26,90.978z M303.26,0c-16.769,0-30.331,13.562-30.331,30.324s13.562,30.327,30.331,30.327
		c16.76,0,30.322-13.565,30.322-30.327S320.02,0,303.26,0z M212.28,90.978c-16.762,0-30.324,13.562-30.324,30.324
		s13.562,30.327,30.324,30.327c16.764,0,30.326-13.565,30.326-30.327S229.044,90.978,212.28,90.978z M303.26,363.91
		c-16.769,0-30.331,13.562-30.331,30.322c0,16.765,13.562,30.327,30.331,30.327c16.76,0,30.322-13.562,30.322-30.327
		C333.582,377.473,320.02,363.91,303.26,363.91z M303.26,272.931c-16.769,0-30.331,13.562-30.331,30.327
		c0,16.759,13.562,30.321,30.331,30.321c16.76,0,30.322-13.562,30.322-30.321C333.582,286.493,320.02,272.931,303.26,272.931z"/>
</g>
</svg>
